<?xml version="1.0" encoding="utf-8"?>
<!-- Generator: Adobe Illustrator 21.0.2, SVG Export Plug-In . SVG Version: 6.00 Build 0)  -->
<svg version="1.1" id="Layer_1" xmlns="http://www.w3.org/2000/svg" xmlns:xlink="http://www.w3.org/1999/xlink" x="0px" y="0px"
	 viewBox="0 0 24 24" style="enable-background:new 0 0 24 24;" xml:space="preserve">
<style type="text/css">
	.st0{fill:none;}
	.st1{fill:#ffffff;}
</style>
<rect class="st0" width="24" height="24"/>
<g>
	<path class="st1" d="M21.7,17.7l-7.2-14C13.9,2.6,13,2,11.9,2c-1.1,0-2,0.6-2.5,1.7l-7.1,14c-0.5,1-0.5,2.1,0.1,2.9C2.9,21.5,3.9,22,5,22H19
		c1.1,0,2.1-0.5,2.6-1.4C22.2,19.7,22.2,18.6,21.7,17.7z M19,19.8H5c-0.7,0-1-0.5-0.7-1.1l7.1-14c0.2-0.3,0.4-0.5,0.6-0.5
		c0.2,0,0.4,0.2,0.6,0.5l7.2,14C20,19.3,19.7,19.8,19,19.8z"/>
	<path class="st1" d="M12,15.3c0.6,0,1.1-0.5,1.1-1.1V9.3c0-0.6-0.5-1.1-1.1-1.1c-0.6,0-1.1,0.5-1.1,1.1v4.9C10.9,14.8,11.4,15.3,12,15.3z"/>
	<circle class="st1" cx="12" cy="17.2" r="1.2"/>
</g>
</svg>
