<svg id="Layer_1" data-name="Layer 1" xmlns="http://www.w3.org/2000/svg" viewBox="0 0 32 32"><defs><style>.cls-1{fill:none;}</style></defs><title>profile</title><rect class="cls-1" width="32" height="32"/><path d="M25.8995,6.1005a14,14,0,0,0-19.799,19.799A14,14,0,0,0,25.8995,6.1005ZM8.24009,25.15258a6.46533,6.46533,0,0,1,5.73853-3.56436h4.04275a6.48142,6.48142,0,0,1,5.7389,3.56405A11.99752,11.99752,0,0,1,8.24009,25.15258Zm16.98838-1.48243a8.37226,8.37226,0,0,0-7.20709-4.08194H13.97862a8.47827,8.47827,0,0,0-7.20407,4.08552A12,12,0,1,1,25.22847,23.67015Z"/><path d="M16,7.90522a4.54739,4.54739,0,1,0,4.54739,4.54739A4.55254,4.55254,0,0,0,16,7.90522ZM16,15a2.54739,2.54739,0,1,1,2.54739-2.54739A2.55031,2.55031,0,0,1,16,15Z"/></svg>