<?xml version="1.0" encoding="UTF-8" standalone="no"?>
<svg width="20px" height="20px" viewBox="0 0 20 20" version="1.1" xmlns="http://www.w3.org/2000/svg" xmlns:xlink="http://www.w3.org/1999/xlink">
    <!-- Generator: Sketch 46.2 (44496) - http://www.bohemiancoding.com/sketch -->
    <title>help</title>
    <desc>Created with Sketch.</desc>
    <defs></defs>
    <g id="Mobile-App" stroke="none" stroke-width="1" fill="none" fill-rule="evenodd">
        <g id="help" transform="translate(-2.000000, -2.000000)">
            <rect id="Rectangle-path" x="0" y="0" width="24" height="24"></rect>
            <g id="Group" transform="translate(2.000000, 2.000000)" fill-rule="nonzero" fill="#999999">
                <path d="M10,0 C4.5,0 0,4.5 0,10 C0,15.5 4.5,20 10,20 C15.5,20 20,15.5 20,10 C20,4.5 15.5,0 10,0 Z M10,18 C5.6,18 2,14.4 2,10 C2,5.6 5.6,2 10,2 C14.4,2 18,5.6 18,10 C18,14.4 14.4,18 10,18 Z" id="Shape"></path>
                <circle id="Oval" cx="10" cy="15" r="1.1"></circle>
                <path d="M12.7,5.1 C12.3,4.6 11.9,4.3 11.4,4 C11.1,3.9 10.8,3.8 10.4,3.8 C10.4,3.8 10.4,3.8 10.3,3.8 L9.6,3.8 C9.4,3.8 9.3,3.9 9.1,3.9 C8.6,4 8.1,4.3 7.7,4.6 C7.4,4.8 7.1,5.2 6.9,5.6 C6.8,5.8 6.8,6 6.7,6.1 L6.7,6.4 C6.7,6.5 6.8,6.7 6.8,6.8 C7.1,7.2 7.5,7.3 8,7.2 C8.3,7.1 8.5,6.9 8.7,6.6 C8.9,6.1 9.2,5.8 9.8,5.7 C10.2,5.6 10.6,5.7 10.9,6 C11.2,6.2 11.3,6.5 11.3,6.9 C11.3,7.2 11.3,7.5 11.1,7.8 C10.9,8.1 10.6,8.3 10.3,8.6 C10,8.9 9.7,9.1 9.5,9.4 C9.1,9.9 8.9,10.5 8.9,11.1 L8.9,12.2 C8.9,12.8 9.3,13.2 9.9,13.2 C10.4,13.2 10.9,12.7 10.9,12.2 L10.9,11.1 C10.9,11 10.9,10.8 11,10.7 C11.1,10.4 11.4,10.3 11.6,10.1 C11.9,9.9 12.2,9.6 12.4,9.4 C12.8,9 13.1,8.5 13.2,7.9 C13.2,7.8 13.3,7.6 13.3,7.5 L13.3,6.9 C13.3,6.8 13.2,6.6 13.2,6.5 C13.2,5.9 13,5.5 12.7,5.1 Z" id="Shape"></path>
            </g>
        </g>
    </g>
</svg>