<?xml version="1.0" encoding="UTF-8" standalone="no"?>
<svg width="48px" height="48px" viewBox="0 0 48 48" version="1.1" xmlns="http://www.w3.org/2000/svg" xmlns:xlink="http://www.w3.org/1999/xlink">
    <!-- Generator: Sketch 46.2 (44496) - http://www.bohemiancoding.com/sketch -->
    <title>logo</title>
    <desc>Created with Sketch.</desc>
    <defs></defs>
    <g id="Mobile-App" stroke="none" stroke-width="1" fill="none" fill-rule="evenodd">
        <g id="logo" fill-rule="nonzero" fill="#FFFFFF">
            <path d="M24.0497313,5.24248942e-05 L24.0496255,5.24248942e-05 C10.7948811,-0.0273556379 0.0274611281,10.6955599 5.24270133e-05,23.9503415 L5.24270133e-05,23.9503959 C-0.0273562741,37.2051839 10.695625,47.9725389 23.9503694,47.9999476 L23.950477,47.9999476 C37.2052214,48.0273563 47.9725357,37.3044401 47.9999476,24.0496553 L47.9999476,24.0496009 C48.0273518,10.7948174 37.3044725,0.0274611285 24.0497313,5.24248942e-05 Z M29.398366,40.2149266 C28.6001529,40.6684999 27.7425623,41.0084922 26.8503931,41.2250722 C22.8810949,42.1906335 18.9450249,41.0544607 16.2011236,38.2995217 L10.8756422,32.9516952 C9.4952178,31.5654775 9.49988365,29.3226801 10.8860638,27.942218 L12.4269309,26.40771 C12.5296662,26.3053981 12.6688371,26.2480883 12.8138273,26.2483882 C12.9588176,26.248688 13.0977502,26.306573 13.2000615,26.4093089 L14.822128,28.0380956 C14.9244399,28.1408309 14.9817497,28.2800018 14.9814498,28.4249921 C14.98115,28.5699823 14.923265,28.708915 14.820529,28.8112263 L13.6355079,29.9913559 C13.3804233,30.245617 13.3795697,30.6584656 13.6336007,30.9137793 L18.6048947,35.9056733 C20.5607181,37.8699486 23.3901896,38.648961 26.2211228,37.8787475 C26.6932385,37.7504596 27.1492244,37.5688698 27.580282,37.3374819 C32.3973511,34.7479909 33.0458515,28.590011 29.5130142,25.0428278 L24.5417197,20.0509344 C24.2872537,19.7961039 23.8745601,19.7952506 23.6190425,20.0490266 L22.4370879,21.2261032 C22.223151,21.4391529 21.8770111,21.438437 21.6639573,21.2245043 L20.0418908,19.5957176 C19.8288411,19.3817807 19.829557,19.0356408 20.0434897,18.822587 L21.5813665,17.2910538 C22.9675786,15.9105614 25.2104273,15.9151713 26.5909528,17.3013504 L31.9167828,22.6489744 C36.9406178,27.6939299 36.0952475,36.4023599 29.3983654,40.2149266 L29.398366,40.2149266 Z M37.2586206,20.0559177 L35.7279681,21.5802541 C35.6252328,21.682566 35.4860619,21.7398758 35.3410717,21.739576 C35.1960814,21.7392761 35.0571488,21.6813911 34.9548376,21.5786552 L33.332771,19.9498685 C33.1197214,19.7359316 33.1204373,19.3897917 33.33437,19.1767379 L34.5091752,18.0067812 C34.7642638,17.7524225 34.7651175,17.3395153 34.5110831,17.0841039 L29.5397923,12.0922106 C27.5995482,10.1423686 24.7662699,9.37610163 22.1077232,10.0821895 C19.4491765,10.7882773 17.3694823,12.8593888 16.652406,15.514993 C15.9353297,18.1705972 16.6898729,21.0070203 18.631674,22.9553118 L23.9574258,28.3031351 C24.0159259,28.3618772 24.1109695,28.3620738 24.169712,28.3035741 L25.7096422,26.770003 C25.8123767,26.6676912 25.951547,26.6103813 26.0965367,26.6106812 C26.2415264,26.610981 26.3804584,26.668866 26.4827689,26.7716019 L28.1048354,28.4003886 C28.2071473,28.5031239 28.2644571,28.6422948 28.2641573,28.787285 C28.2638574,28.9322753 28.2059724,29.071208 28.1032365,29.1735192 L26.9192401,30.3526273 C25.3355293,31.9263802 22.7767838,31.921203 21.1994545,30.3410541 L16.2279055,25.3491562 C11.9134354,21.0165502 11.9277252,13.9811617 16.2603327,9.66618237 C20.5937055,5.35145489 27.6290895,5.36651561 31.9435641,9.69835839 L37.269046,15.0461817 C38.6495422,16.4324714 38.6448746,18.6753857 37.2586206,20.0559177 Z" id="Shape"></path>
        </g>
    </g>
</svg>