<?xml version="1.0" encoding="utf-8"?>
<!-- Generator: Adobe Illustrator 19.2.1, SVG Export Plug-In . SVG Version: 6.00 Build 0)  -->
<svg version="1.1" id="Layer_1" xmlns="http://www.w3.org/2000/svg" xmlns:xlink="http://www.w3.org/1999/xlink" x="0px" y="0px"
	 viewBox="0 0 217.5 217.4" style="enable-background:new 0 0 217.5 217.4;" xml:space="preserve">
<style type="text/css">
	.st0{fill:#FFFFFF;}
</style>
<path class="st0" d="M108.7,0.6L108.7,0.6c-59.6,0-108,48.4-108,108v0c0,59.6,48.4,108,108,108h0c59.6,0,108-48.4,108-108v0
	C216.7,48.9,168.4,0.6,108.7,0.6z M132.2,180.9c-3.6,2-7.4,3.6-11.5,4.6c-17.9,4.4-35.6-0.7-47.9-13.1l-24-24
	c-6.2-6.2-6.2-16.3,0-22.5l6.9-6.9c1-1,2.5-1,3.5,0l7.3,7.3c1,1,1,2.5,0,3.5l-5.3,5.3c-1.1,1.1-1.1,3,0,4.2l22.4,22.4
	c8.8,8.8,21.6,12.3,34.3,8.8c2.1-0.6,4.2-1.4,6.1-2.4c21.7-11.7,24.5-39.4,8.6-55.3l-22.4-22.4c-1.1-1.1-3-1.1-4.2,0l-5.3,5.3
	c-1,1-2.5,1-3.5,0l-7.3-7.3c-1-1-1-2.5,0-3.5l6.9-6.9c6.2-6.2,16.3-6.2,22.5,0l24,24C166.1,124.5,162.3,163.7,132.2,180.9z
	 M167.4,90.1l-6.9,6.9c-1,1-2.5,1-3.5,0l-7.3-7.3c-1-1-1-2.5,0-3.5l5.3-5.3c1.1-1.1,1.1-3,0-4.2l-22.4-22.4
	c-13.5-13.5-35.5-13.5-49,0c-13.5,13.5-13.5,35.5,0,49l24,24c0.3,0.3,0.7,0.3,1,0l6.9-6.9c1-1,2.5-1,3.5,0l7.3,7.3c1,1,1,2.5,0,3.5
	l-5.3,5.3c-3.5,3.5-8.2,5.3-12.9,5.3c-4.7,0-9.3-1.8-12.9-5.3l-22.4-22.4c-19.5-19.5-19.5-51.1,0-70.6c19.5-19.5,51.1-19.5,70.6,0
	l24,24C173.6,73.8,173.6,83.9,167.4,90.1z"/>
</svg>
