<?xml version="1.0" encoding="utf-8"?>
<!-- Generator: Adobe Illustrator 19.2.1, SVG Export Plug-In . SVG Version: 6.00 Build 0)  -->
<svg version="1.1" id="Layer_1" xmlns="http://www.w3.org/2000/svg" xmlns:xlink="http://www.w3.org/1999/xlink" x="0px" y="0px"
	 viewBox="0 0 888.4 146.9" style="enable-background:new 0 0 888.4 146.9;" xml:space="preserve">
<style type="text/css">
	.st0{fill:#FFFFFF}
</style>
<g>
	<path class="st0" d="M173.9,122.4c-1.4-1.4-3.6-1.4-5-0.2c-5.1,4.4-11.4,7-18.1,7.3h-1.5c-16.4,0-29.7-13.3-29.7-29.7
		s13.3-29.7,29.7-29.7h10.3c0.8,0,1.5,0.7,1.5,1.5v6.5c0,2,1.7,3.7,3.7,3.7h9.3c2,0,3.7-1.7,3.7-3.7v-8.8c0-8.8-7.1-15.9-15.9-15.9
		h-14.6l-1.5,0.1v0.1c-24.2,1.8-43,21.9-43,46.4c0,25.1,20,45.7,45,46.5v0.1h1.5c11.5,0,22.6-4.3,31.1-12c0.8-0.7,1.2-1.6,1.2-2.7
		c0-1-0.4-2-1.1-2.7L173.9,122.4z"/>
	<path class="st0" d="M606.3,26.4H597c-2,0-3.7,1.7-3.7,3.7v9.3c0,2,1.7,3.7,3.7,3.7h9.3c2,0,3.7-1.7,3.7-3.7v-9.3
		C610,28,608.4,26.4,606.3,26.4z"/>
	<path class="st0" d="M806.3,129.3h-7c-0.5,0-1-0.2-1.2-0.7L774.2,93l7.9-11.7c0.2-0.2,0.3-0.4,0.5-0.6L798,57.8
		c0.3-0.4,0.7-0.7,1.2-0.7h7c2.1,0,3.8-1.7,3.8-3.8v-9.2c0-1-0.4-2-1.1-2.7s-1.7-1.1-2.7-1.1h-8.1c-5,0-9.8,2.4-12.8,6.4
		c-0.1,0.1-0.1,0.2-0.2,0.3l-25,37c-0.2,0.3-0.4,0.4-0.6,0.5H744V15.9c0-2.2-1.8-3.9-3.9-3.9h-9c-2.2,0-3.9,1.8-3.9,3.9v126.5
		c0,2,1.7,3.7,3.7,3.7h9.3c2,0,3.7-1.7,3.7-3.7v-40.8h15.5c0.2,0.1,0.4,0.2,0.6,0.5l16.3,24.4c0.1,0.1,0.1,0.2,0.2,0.3l8.2,12.2
		c3,4.5,8,7.2,13.4,7.2h8.1c1,0,2-0.4,2.7-1.1c0.7-0.7,1.1-1.7,1.1-2.7v-9.2C810.1,131,808.4,129.3,806.3,129.3z"/>
	<path class="st0" d="M716.6,129.3h-6.5c-0.8,0-1.5-0.7-1.5-1.5V90v-1.5l0,0C707.8,68.8,691.5,53,671.7,53h-1.5l0,0
		c-10.4,0.3-20.3,4.1-28.3,10.8v-7.9c0-1.7-1.6-3-3.7-3h-9.3c-2.1,0-3.7,1.3-3.7,3v86.4c0,2,1.7,3.7,3.7,3.7h9.3
		c2,0,3.7-1.7,3.7-3.7V99.5c0-16.4,13.3-29.7,29.7-29.7h0.5C683,70.1,691.8,79,691.8,90v40.1c0,8.8,7.1,15.9,15.9,15.9h8.8
		c2,0,3.7-1.7,3.7-3.7V133C720.3,131,718.6,129.3,716.6,129.3z"/>
	<path class="st0" d="M283.8,129.8h-6.5c-0.8,0-1.5-0.7-1.5-1.5V90.5V89l0,0c-0.8-19.7-17.1-35.5-36.9-35.5h-1.5l0,0
		c-10.4,0.4-20.3,4.1-28.3,10.8V3.7c0-2-1.7-3.7-3.7-3.7h-9.3c-2,0-3.7,1.7-3.7,3.7v139.1c0,2,1.7,3.7,3.7,3.7h9.3
		c2,0,3.7-1.7,3.7-3.7V100c0-16.4,13.3-29.7,29.7-29.7h0.5c10.9,0.3,19.7,9.2,19.7,20.2v40.1c0,8.8,7.1,15.9,15.9,15.9h8.8
		c2,0,3.7-1.7,3.7-3.7v-9.3C287.5,131.4,285.9,129.8,283.8,129.8z"/>
	<path class="st0" d="M594.1,53.4h-8.8c-2,0-3.7,1.7-3.7,3.7v9.3c0,2,1.7,3.7,3.7,3.7h6.5c0.8,0,1.5,0.7,1.5,1.5v12.3v0.2
		c0,0.1,0,0.1,0,0.2v58.4c0,2,1.7,3.7,3.7,3.7h9.3c2,0,3.7-1.7,3.7-3.7V69.3C610,60.5,602.9,53.4,594.1,53.4z"/>
	<path class="st0" d="M333,52.6c-12.4,0-23.8,4.9-32.1,13.8c-8,8.6-12.4,20.2-12.4,32.6s4.4,24,12.4,32.6
		c8.3,8.9,19.7,13.8,32.1,13.8s23.8-4.9,32.1-13.8c8-8.6,12.4-20.2,12.4-32.6s-4.4-24-12.4-32.6C356.8,57.6,345.4,52.6,333,52.6z
		 M333,128.9c-15.8,0-27.7-12.8-27.7-29.7c0-17,11.9-29.7,27.7-29.7s27.7,12.8,27.7,29.7S348.8,128.9,333,128.9z"/>
	<path class="st0" d="M432.8,52.9c-12.4,0-23.8,4.9-32.1,13.8c-8,8.6-12.4,20.2-12.4,32.6s4.4,24,12.4,32.6
		c8.3,8.9,19.7,13.8,32.1,13.8s23.8-4.9,32.1-13.8c8-8.6,12.4-20.2,12.4-32.6s-4.4-24-12.4-32.6C456.6,57.8,445.2,52.9,432.8,52.9z
		 M432.8,129.1c-15.8,0-27.7-12.8-27.7-29.7c0-17,11.9-29.7,27.7-29.7s27.7,12.8,27.7,29.7C460.6,116.3,448.6,129.1,432.8,129.1z"/>
	<path class="st0" d="M876,77.3h9.3c1.5,0,2.7-1.2,2.7-2.7v-5.1c0-3-1-8.7-7.5-13.2l-0.1-0.1c-7.2-4.6-15.6-7-24.2-7h-14.8h-0.5l0,0
		c-14.3,0.4-25.8,12.2-25.8,26.5c0,5.8,2.3,11.2,6.4,15.3l0.4,0.3l0,0c2.4,2.3,5.1,4.1,8.2,5.4l0.5,0.2l0,0l21.3,8.8l0,0l15.7,6.5
		l0.3,0.1c1.3,0.6,2.4,1.4,3.4,2.4l0.3,0.2c1.1,1.3,1.8,2.9,1.8,4.6l0,0c0,6.4-5.2,11.7-11.7,11.7h-15.1c-5.7-0.1-11.2-1.7-16-4.8
		c-0.4-0.5-0.7-1.1-0.7-1.7v-4.1c0-1.5-1.2-2.7-2.7-2.7h-9.3c-1.5,0-2.7,1.2-2.7,2.7v5.1c0,3,1,8.7,7.5,13.2l0.1,0.1
		c7.3,4.6,15.6,7,24.2,7h14.8h0.5l0,0c14.3-0.3,25.8-12.1,25.8-26.4c0-5.8-2.3-11.2-6.4-15.3l-0.3-0.4l0,0c-2.4-2.3-5.1-4.1-8.2-5.4
		l-0.5-0.2l0,0L859,92.6l0,0l-23.4-9.7l-0.3-0.1c-1.3-0.6-2.4-1.4-3.4-2.4l-0.3-0.2c-1.1-1.3-1.8-2.9-1.8-4.6l0,0
		c0-6.4,5.2-11.7,11.7-11.7h15.1c5.7,0.1,11.2,1.7,16,4.8c0.4,0.5,0.7,1.1,0.7,1.7v4.1C873.3,76.1,874.5,77.3,876,77.3z"/>
	<path class="st0" d="M572.5,107.5h-9.3c-2.3,0-4.2,1.9-4.2,4.2v16.5c0,0.6-0.4,1-1,1h-49.5c-0.6,0-1-0.4-1-1V9.5
		c0-2.4-2-4.4-4.4-4.4h-9c-2.4,0-4.4,2-4.4,4.4v121c0,9,7.4,16.4,16.4,16.4h54.2c9,0,16.4-7.4,16.4-16.4v-18.8
		C576.7,109.4,574.8,107.5,572.5,107.5z"/>
	<path class="st0" d="M92.9,18.6c0-0.1,0-0.2-0.1-0.2c-1-2.5-2.5-4.8-4.5-6.7c-8.8-9-20.5-13.9-32.9-13.9H39.2c-0.1,0-0.1,0-0.2,0
		C17.9-2.3,0.1,16.3,0.1,38.2v0.3c0.1,12.7,8.2,24.2,20,28.7l41.8,17.3c8.9,3.7,14.6,12.2,14.7,21.8c0,0.1,0,0.1,0,0.2
		c0,12-9.8,22.6-21.1,22.6h-0.1h-16c-0.1,0-0.2,0-0.4,0c-7.4,0-14.4-2.9-19.8-8.1c-0.1-0.2-0.2-0.4-0.4-0.6
		c-0.2-0.2-0.4-0.5-0.5-0.8s-0.2-0.6-0.2-0.9c0-0.1,0-0.2,0-0.3v-17.1c0-2.3-1.9-4.2-4.2-4.2H4.3c-2.3,0-4.2,1.9-4.2,4.2v17.1
		c0,0.1,0,0.1,0,0.2c0,2.6,0.5,5,1.5,7.4c0,0.1,0,0.2,0.1,0.2c1,2.5,2.5,4.8,4.5,6.7c8.8,9,20.5,13.9,32.9,13.9h16.3
		c0.1,0,0.1,0,0.2,0c21.1,0,38.9-18.5,38.9-40.4v-0.5C94.3,89.3,84.2,74.4,68.8,68L27.4,51c-0.2-0.1-0.4-0.2-0.5-0.3
		c-5.2-1.8-8.8-6.7-8.9-12.2c0-0.1,0-0.2,0-0.3c0-12,9.9-22.6,21.1-22.6h0.1h15.9c0.1,0,0.2,0,0.3,0c7.4,0,14.4,2.9,19.8,8.1
		c0.1,0.2,0.2,0.4,0.4,0.6c0.2,0.2,0.4,0.5,0.5,0.8s0.2,0.6,0.2,0.9c0,0.1,0,0.2,0,0.3v12.1c0,2.3,1.9,4.2,4.2,4.2h9.6
		c2.3,0,4.2-1.9,4.2-4.2V26.2c0-0.1,0-0.1,0-0.2C94.3,23.4,93.8,20.9,92.9,18.6z"/>
</g>
</svg>
