<?xml version="1.0" encoding="UTF-8" standalone="no"?>
<svg width="20px" height="16px" viewBox="0 0 20 16" version="1.1" xmlns="http://www.w3.org/2000/svg" xmlns:xlink="http://www.w3.org/1999/xlink">
    <!-- Generator: Sketch 46.2 (44496) - http://www.bohemiancoding.com/sketch -->
    <title>messages</title>
    <desc>Created with Sketch.</desc>
    <defs></defs>
    <g id="Mobile-App" stroke="none" stroke-width="1" fill="none" fill-rule="evenodd">
        <g id="messages" transform="translate(-2.000000, -4.000000)">
            <rect id="Rectangle-path" x="0" y="0" width="24" height="24"></rect>
            <path d="M18.66667,4 L5.33333,4 C3.49324232,4.00208313 2.00207761,5.49325232 2,7.33334 L2,16.66667 C2.00208312,18.5067538 3.49324622,19.9979169 5.33333,20 L18.66667,20 C20.5067538,19.9979169 21.9979169,18.5067538 22,16.66667 L22,7.33334 C21.9979224,5.49325232 20.5067577,4.00208313 18.66667,4 Z M18.66667,6 C18.8903827,5.99991247 19.1104549,6.05662771 19.30626,6.16483 L12,12.1925 L4.69374,6.16486 C4.88954512,6.05665771 5.1096173,5.99994247 5.33333,6.00003 L18.66667,6.00003 L18.66667,6 Z M18.66667,18 L5.33333,18 C4.59784803,17.9978417 4.00215831,17.402152 4,16.66667 L4,8.18529 L11.36361,14.26029 C11.733112,14.5651389 12.266898,14.5651389 12.6364,14.26029 L20,8.18529 L20,16.66667 C19.9978472,17.4021542 19.4021542,17.9978472 18.66667,18 L18.66667,18 Z" id="Shape" fill="#FFFFFF" fill-rule="nonzero"></path>
        </g>
    </g>
</svg>