<svg id="Layer_1" data-name="Layer 1" xmlns="http://www.w3.org/2000/svg" viewBox="0 0 24 24"><defs><style>.cls-1{fill:none;}</style></defs><title>notification</title><rect class="cls-1" width="24" height="24"/><path d="M21.48488,15.74447c-1.28667-1.05549-1.8139-2.61753-2.20968-4.63817-0.04-.20429-0.08091-0.46265-0.12419-0.73623a9.17867,9.17867,0,0,0-1.469-4.32984,5.80056,5.80056,0,0,0-2.82151-1.882,2.994,2.994,0,0,0-5.79506-.01589A5.38552,5.38552,0,0,0,6.24,5.93761a8.69138,8.69138,0,0,0-1.394,4.15792c-0.05119.33626-.09951,0.6539-0.15022,0.892-0.385,1.80628-.84735,3.52162-2.25653,4.65727A1.26443,1.26443,0,0,0,2.03107,17.062a1.31456,1.31456,0,0,0,1.23543.87053L20.63466,18.0251h0.00727a1.31464,1.31464,0,0,0,1.23819-.85856A1.26427,1.26427,0,0,0,21.48488,15.74447Zm-16.59065.20126a11.44532,11.44532,0,0,0,1.75691-4.54295c0.063-.29561.11567-0.6415,0.17137-1.00769a7.40869,7.40869,0,0,1,.95657-3.184,3.87276,3.87276,0,0,1,2.40567-1.28971l0.02564-.00723c0.02138-.00548.04266-0.01109,0.06346-0.01792l0.03547-.013c0.01877-.007.03747-0.014,0.05569-0.022,0.01327-.00583.026-0.01236,0.039-0.01874,0.016-.00792.032-0.01581,0.04756-0.02455,0.01312-.00738.02573-0.01537,0.03842-0.0233,0.015-.00935.02991-0.01872,0.04435-0.02882l0.032-.02388c0.01592-.01211.03163-0.0244,0.04678-0.03742l0.021-.019c0.0183-.01665.036-0.03376,0.05306-0.05171L10.694,5.62631a0.99206,0.99206,0,0,0,.26726-0.6775,1.00049,1.00049,0,1,1,1.99916,0l0.00125,0.02483c0.00056,0.02276.00134,0.04543,0.00344,0.06791l0.00459,0.03623c0.00263,0.02009.00532,0.04012,0.00916,0.05991,0.00282,0.01468.00646,0.029,0.00992,0.04346,0.004,0.01652.00788,0.033,0.01269,0.04926C13.0063,5.247,13.012,5.2631,13.01771,5.2793c0.00487,0.0138.00963,0.0276,0.01509,0.04115,0.00685,0.017.01448,0.03353,0.02222,0.05006L13.0729,5.40757c0.00841,0.01616.01751,0.03182,0.02676,0.04746l0.022,0.03613c0.00935,0.01437.01929,0.02824,0.02935,0.04208,0.009,0.01245.018,0.02485,0.02763,0.03688,0.00977,0.01222.02,0.024,0.03036,0.03571,0.01113,0.0127.02231,0.0253,0.03409,0.03744L13.27376,5.673c0.01314,0.01243.02635,0.02472,0.04018,0.03646l0.03217,0.02564c0.01446,0.01127.029,0.02241,0.04409,0.0329,0.01188,0.00825.02417,0.01587,0.03641,0.0236,0.01469,0.00927.02935,0.01852,0.0446,0.027,0.0145,0.00814.02945,0.01547,0.04438,0.02288,0.01369,0.00678.02724,0.01369,0.04132,0.01987,0.018,0.00792.03642,0.0148,0.05493,0.02168l0.03591,0.01313c0.0208,0.00683.04208,0.01243,0.06346,0.01791l0.02564,0.00723a4.03451,4.03451,0,0,1,2.4061,1.3924,8.02771,8.02771,0,0,1,1.03331,3.36762c0.0462,0.29209.08991,0.56794,0.13688,0.8079A11.28224,11.28224,0,0,0,19.02791,16.021Z"/><path d="M14.86246,19.17174a1.00077,1.00077,0,0,0-1.41141.07779,2.00178,2.00178,0,0,1-2.98035.00016,0.99875,0.99875,0,0,0-1.48939,1.33107,4.00337,4.00337,0,0,0,5.95913-.00016A0.99646,0.99646,0,0,0,14.86246,19.17174Z"/></svg>