<?xml version="1.0" encoding="UTF-8" standalone="no"?>
<svg width="20px" height="20px" viewBox="0 0 20 20" version="1.1" xmlns="http://www.w3.org/2000/svg" xmlns:xlink="http://www.w3.org/1999/xlink">
    <!-- Generator: Sketch 46.2 (44496) - http://www.bohemiancoding.com/sketch -->
    <title>notifications</title>
    <desc>Created with Sketch.</desc>
    <defs></defs>
    <g id="Mobile-App" stroke="none" stroke-width="1" fill="none" fill-rule="evenodd">
        <g id="notifications" transform="translate(-2.000000, -2.000000)">
            <rect id="Rectangle-path" x="0" y="0" width="24" height="24"></rect>
            <path d="M21.527076,15.7356315 C20.2404148,14.6876721 19.7131884,13.1367769 19.317411,11.1305536 C19.2774113,10.9277212 19.2365016,10.6712045 19.1932219,10.3995765 C19.0766271,8.86650576 18.5712853,7.38764072 17.7242319,6.10062879 C16.9922333,5.21259037 16.0097299,4.56191348 14.902741,4.23205639 C14.5631251,2.92125781 13.3745594,2.0037225 12.0113731,2.0000113 C10.6481867,1.9963001 9.4545711,2.90735005 9.10772032,4.21627976 C7.99911961,4.49734981 7.0094883,5.12167429 6.28229949,5.99874096 C5.46987127,7.23389951 4.98993041,8.65522759 4.88830894,10.1269952 C4.83711929,10.4608561 4.78879962,10.7762298 4.73808996,11.012631 C4.35309258,12.8060237 3.89074571,14.5091252 2.48157527,15.6366726 C2.05557942,15.9701937 1.89134275,16.5363584 2.07339804,17.0437612 C2.26056869,17.5615997 2.75469599,17.9072984 3.30881966,17.9080802 L20.6768618,17.9999897 L20.6841318,17.9999897 C21.2361873,18.0021554 21.7307949,17.6616395 21.9223134,17.1475553 C22.1096546,16.6414789 21.950563,16.0731488 21.527076,15.7356315 L21.527076,15.7356315 Z M5,15.9254466 C5.89625537,14.5677803 6.48979193,13.0331325 6.74029269,11.425747 C6.80269682,11.1329513 6.85486865,10.7903543 6.91004183,10.4276506 C6.98287857,9.31821968 7.30687611,8.23984221 7.85756434,7.27396336 C8.47050544,6.57308661 9.317457,6.11905366 10.2404809,5.99653184 L10.2658784,5.98937067 C10.2870562,5.98394284 10.3081349,5.97838625 10.3287382,5.97162128 L10.3638727,5.95874504 C10.3824651,5.95181168 10.4009883,5.94487833 10.4190359,5.93695449 C10.4321804,5.93117999 10.44479,5.92471216 10.4576671,5.9183929 C10.4735157,5.9105483 10.4893644,5.90273342 10.5047772,5.89407662 C10.5177731,5.88676688 10.5302639,5.87885295 10.5428339,5.87099845 C10.557692,5.86173746 10.572461,5.85245667 10.5867644,5.84245282 L10.6184617,5.81880017 C10.6342311,5.80680546 10.6497926,5.79463247 10.6647993,5.78173642 L10.6856006,5.76291731 C10.7037276,5.74642582 10.7212601,5.72947871 10.7381588,5.7116996 L10.7449143,5.70427101 C10.915049,5.52223831 11.0096758,5.28237578 11.0096465,5.03322104 C10.9941187,4.66942768 11.179366,4.32642272 11.4921064,4.13989545 C11.8048467,3.95336818 12.1946976,3.95336818 12.507438,4.13989545 C12.8201783,4.32642272 13.0054256,4.66942768 12.9898979,5.03322104 L12.9911361,5.05781465 C12.9916908,5.08035797 12.9924634,5.10281214 12.9945435,5.12507812 L12.9990901,5.1609632 C13.0016952,5.18086194 13.0043598,5.20070124 13.0081635,5.22030284 C13.0109568,5.23484308 13.0145624,5.24902675 13.0179897,5.26334908 C13.0219518,5.27971181 13.0257951,5.29603491 13.0305596,5.31214011 C13.0353439,5.32857217 13.04099,5.34451889 13.046646,5.36056466 C13.05147,5.37423328 13.0561849,5.3879019 13.0615933,5.4013229 C13.0683785,5.41816105 13.0759363,5.43453368 13.0836031,5.45090631 L13.101314,5.48761349 C13.1096445,5.50361964 13.1186584,5.51913055 13.1278209,5.53462165 L13.1496128,5.57040768 C13.1588744,5.58464087 13.1687204,5.59837883 13.1786852,5.61208706 C13.1876001,5.62441854 13.196515,5.63670048 13.2060539,5.64861595 C13.2157315,5.66071962 13.2258647,5.67238747 13.2361268,5.68398598 C13.2471515,5.69656507 13.2582257,5.70904512 13.2698943,5.72106954 L13.3002742,5.7505165 C13.31329,5.76282816 13.326375,5.77500116 13.3400742,5.78662939 L13.3719399,5.81202529 C13.3862632,5.82318799 13.4006656,5.83422194 13.4156129,5.84461207 C13.4273806,5.85278353 13.4395543,5.86033098 13.4516785,5.86798739 C13.4662296,5.87716914 13.4807509,5.88633107 13.4958567,5.89473034 C13.5102196,5.90279284 13.5250282,5.91005306 13.5398169,5.91739251 C13.5533775,5.92410797 13.5667993,5.93095218 13.5807461,5.93707335 C13.5985759,5.94491794 13.6168217,5.95173244 13.6351566,5.95854694 L13.6707269,5.97155194 C13.6913302,5.97831692 13.7124089,5.9838636 13.7335867,5.98929143 L13.7589842,5.9964526 C14.691738,6.15932191 15.5363584,6.64806959 16.1423267,7.37559648 C16.7262641,8.39796352 17.0758585,9.53724134 17.1658634,10.7111556 C17.2116264,11.0004648 17.254923,11.2736886 17.3014487,11.5113641 C17.5358516,13.1129246 18.1153988,14.6444512 19,16 L5,15.9254466 Z" id="Shape" fill="#FFFFFF" fill-rule="nonzero"></path>
            <path d="M14.6912559,19.2558194 C14.3095563,18.887487 13.7238971,18.9223557 13.3819813,19.3337703 C13.0297825,19.7579891 12.5271819,20.0003745 11.9996746,20.0004051 C11.4721672,20.0004357 10.9695426,19.7581085 10.6173016,19.3339306 C10.3967351,19.0673266 10.0612563,18.9480868 9.73723698,19.0211279 C9.41321765,19.0941689 9.14988396,19.348394 9.04643116,19.688039 C8.94297837,20.0276841 9.01512342,20.4011489 9.23568996,20.6677529 C9.94009836,21.5156553 10.9450214,22.0000306 11.9996745,22 C13.0543277,21.9999694 14.0592266,21.5155358 14.7635929,20.6675926 C14.9276068,20.4701672 15.0121572,20.2103562 14.998586,19.945493 C14.9850148,19.6806298 14.8744376,19.4324857 14.6912559,19.2558194 L14.6912559,19.2558194 Z" id="Shape" fill="#FFFFFF" fill-rule="nonzero"></path>
        </g>
    </g>
</svg>