<svg id="Layer_1" data-name="Layer 1" xmlns="http://www.w3.org/2000/svg" viewBox="0 0 24 24"><defs><style>.cls-1{fill:none;}</style></defs><title>privacy-anon</title><rect class="cls-1" width="24" height="24"/><path d="M21.70711,16.707l-0.86335-.86336A4.28334,4.28334,0,0,0,22,13a1,1,0,0,0-2,0c0,0.94227-.77333,1.91232-2.12163,2.66134A12.3413,12.3413,0,0,1,12,17a12.3413,12.3413,0,0,1-5.87835-1.33865C4.77335,14.91235,4,13.9423,4,13a1,1,0,0,0-2,0,4.28334,4.28334,0,0,0,1.15621,2.84366L2.29289,16.707a1,1,0,0,0,1.41428,1.41428l0.98614-.98614a10.56215,10.56215,0,0,0,2.1121,1.018l-0.69981,1.3996a1,1,0,1,0,1.78884.89453l0.8776-1.7552a16.22074,16.22074,0,0,0,2.22941.27947L11,19v2a1,1,0,1,0,2,0V19l-0.00144-.02847a16.22074,16.22074,0,0,0,2.22941-.27947l0.87759,1.7552a1,1,0,1,0,1.78884-.89453l-0.69981-1.3996a10.56215,10.56215,0,0,0,2.1121-1.018l0.98614,0.98614A1,1,0,1,0,21.70711,16.707Z"/><path d="M3,9H21a1,1,0,0,0,0-2H3A1,1,0,0,0,3,9Z"/></svg>