<svg id="Layer_1" data-name="Layer 1" xmlns="http://www.w3.org/2000/svg" viewBox="0 0 24 24"><defs><style>.cls-1{fill:none;}</style></defs><title>privacy-show</title><rect class="cls-1" width="24" height="24"/><path d="M11.99976,10a3,3,0,1,0,3,3A3.00341,3.00341,0,0,0,11.99976,10Zm0,4a1,1,0,1,1,1-1A1.00109,1.00109,0,0,1,11.99976,14Z"/><path d="M21.70687,9.293A1,1,0,1,0,20.29259,7.8787l-0.98614.98614a10.56147,10.56147,0,0,0-2.11211-1.01795l0.69981-1.39961a1,1,0,1,0-1.78884-.89453l-0.8776,1.7552a16.22144,16.22144,0,0,0-2.2294-.27947L12.99975,7V5a1,1,0,0,0-2,0V7L11.0012,7.02848a16.2218,16.2218,0,0,0-2.22941.27947l-0.8776-1.7552a1,1,0,0,0-1.78884.89453L6.80516,7.84689a10.56177,10.56177,0,0,0-2.1121,1.01795L3.70692,7.8787A1,1,0,0,0,2.29264,9.293L3.156,10.15633A4.28338,4.28338,0,0,0,1.99978,13c0,3.36447,4.39246,6,10,6s10-2.63552,10-6a4.28339,4.28339,0,0,0-1.15622-2.84367ZM17.8781,15.66134A12.3413,12.3413,0,0,1,11.99976,17a12.3413,12.3413,0,0,1-5.87835-1.33865C4.7731,14.91232,3.99978,13.94227,3.99978,13s0.77333-1.91232,2.12163-2.66134A12.3413,12.3413,0,0,1,11.99976,9a12.3413,12.3413,0,0,1,5.87835,1.33865c1.3483,0.749,2.12163,1.71907,2.12163,2.66134S19.22641,14.91232,17.8781,15.66134Z"/></svg>