<?xml version="1.0" encoding="UTF-8" standalone="no"?>
<svg width="20px" height="20px" viewBox="0 0 20 20" version="1.1" xmlns="http://www.w3.org/2000/svg" xmlns:xlink="http://www.w3.org/1999/xlink">
    <!-- Generator: Sketch 46.2 (44496) - http://www.bohemiancoding.com/sketch -->
    <title>icons/topnav/search</title>
    <desc>Created with Sketch.</desc>
    <defs></defs>
    <g id="Mobile-App" stroke="none" stroke-width="1" fill="none" fill-rule="evenodd">
        <g id="icons/topnav/search" transform="translate(-2.000000, -2.000000)">
            <rect id="Rectangle-path" x="0" y="0" width="24" height="24"></rect>
            <path d="M21.4213064,17.8755119 L18.3993224,14.8535279 C17.6915352,14.1456582 16.6316993,13.9241999 15.6996834,14.2894243 L14.6923555,13.2820963 C16.9125695,10.3218109 16.4667893,6.14886964 13.6713401,3.72438945 C10.875891,1.29990925 6.68184703,1.44875231 4.06529967,4.06529967 C1.44875231,6.68184703 1.29990925,10.875891 3.72438945,13.6713401 C6.14886964,16.4667893 10.3218109,16.9125695 13.2820963,14.6923555 L14.2894243,15.6996834 C13.9241999,16.6316993 14.1456582,17.6915352 14.8535279,18.3993224 L17.8755119,21.4213064 C18.8763833,22.2500966 20.3435197,22.1812558 21.2623878,21.2623878 C22.1812558,20.3435197 22.2500966,18.8763833 21.4213064,17.8755119 Z M9,14 C6.23857625,14 4,11.7614237 4,9 C4,6.23857625 6.23857625,4 9,4 C11.7614237,4 14,6.23857625 14,9 C14,10.3260824 13.4732158,11.597852 12.5355339,12.5355339 C11.597852,13.4732158 10.3260824,14 9,14 L9,14 Z M19.8522835,19.8522835 C19.7585161,19.9468229 19.6308759,20 19.4977218,20 C19.3645676,20 19.2369275,19.9468229 19.1431601,19.8522835 L16.1468642,16.8559876 L16.1468642,16.8559876 C15.9510452,16.6601686 15.9510453,16.3426833 16.1468643,16.1468643 C16.3426833,15.9510453 16.6601686,15.9510452 16.8559876,16.1468642 L19.8522835,19.1431601 C19.9468229,19.2369275 20,19.3645676 20,19.4977218 C20,19.6308759 19.9468229,19.7585161 19.8522835,19.8522835 Z" id="Shape" fill="#FFFFFF" fill-rule="nonzero"></path>
        </g>
    </g>
</svg>