<?xml version="1.0" encoding="UTF-8" standalone="no"?>
<svg width="21px" height="20px" viewBox="0 0 21 20" version="1.1" xmlns="http://www.w3.org/2000/svg" xmlns:xlink="http://www.w3.org/1999/xlink">
    <!-- Generator: Sketch 46.2 (44496) - http://www.bohemiancoding.com/sketch -->
    <title>settings</title>
    <desc>Created with Sketch.</desc>
    <defs></defs>
    <g id="Mobile-App" stroke="none" stroke-width="1" fill="none" fill-rule="evenodd">
        <g id="settings" transform="translate(-2.000000, -2.000000)">
            <rect id="Rectangle-path" x="0" y="0" width="24" height="24"></rect>
            <g id="Group" transform="translate(2.000000, 2.000000)" fill-rule="nonzero" fill="#999999">
                <path d="M18.6,7.5 L17.4,7 L17.4,7 L17.9,5.5 C18.2,4.7 18,3.8 17.4,3.2 L16.8,2.6 C16.4,2.2 15.8,2 15.3,2 C15,2 14.8,2 14.5,2.1 L13,2.6 L12.9,2.6 L12.4,1.4 C12.1,0.6 11.3,0.1 10.4,0.1 L9.6,0.1 C8.7,0.1 7.9,0.6 7.6,1.5 L7.1,2.5 L6.7,2.7 L5.6,2.2 C5.3,2.1 5,2 4.7,2 C4.2,2 3.6,2.3 3.2,2.7 L2.6,3.2 C2,3.9 1.8,4.8 2.2,5.7 L2.7,6.9 L2.7,7 L1.2,7.7 C0.5,8 0,8.8 0,9.6 L0,10.4 C0,11.3 0.5,12 1.3,12.4 L2.7,13 L2.7,13.1 L2.2,14.3 C1.9,15.1 2.1,16.1 2.7,16.7 L3.3,17.3 C3.7,17.7 4.3,17.9 4.8,17.9 C5.1,17.9 5.3,17.9 5.6,17.8 L7,17.4 L7.7,18.8 C8.1,19.6 8.8,20 9.7,20 L10.6,20 C11.4,20 12.2,19.5 12.6,18.7 L13.2,17.3 L14.7,17.8 C14.9,17.9 15.2,17.9 15.4,17.9 C16,17.9 16.5,17.7 16.9,17.3 L17.5,16.7 C18.1,16.1 18.3,15.1 18,14.3 L17.5,13.1 L17.5,13 L18.9,12.3 C19.6,11.9 20.1,11.2 20.1,10.3 L20.1,9.5 C20,8.7 19.5,7.9 18.6,7.5 Z M18.2,10.4 C18.2,10.6 18.1,10.7 18,10.8 L16,11.8 C15.9,11.8 15.8,11.9 15.8,12 L15.5,13.2 L15.5,13.5 L16.2,15.1 C16.3,15.3 16.2,15.4 16.1,15.6 L15.5,16.2 C15.4,16.3 15.3,16.3 15.2,16.3 L15.1,16.3 L13,15.4 L12.9,15.4 L12.8,15.4 L12,15.8 C11.9,15.8 11.8,15.9 11.8,16 L10.9,18 C10.8,18.1 10.7,18.2 10.5,18.2 L9.6,18.2 C9.5,18.2 9.3,18.1 9.2,18 L8.2,16 C8.2,15.9 8.1,15.8 8,15.8 L7.2,15.5 L7.1,15.5 L7,15.5 L4.9,16.3 L4.8,16.3 C4.7,16.3 4.6,16.3 4.5,16.2 L3.9,15.6 C3.8,15.5 3.7,15.3 3.8,15.2 L4.5,13.5 L4.5,13.2 L4.2,12 C4.2,11.9 4.1,11.8 4,11.7 L2,10.8 C1.9,10.7 1.8,10.6 1.8,10.4 L1.8,9.6 C1.8,9.4 1.9,9.3 2,9.2 L4,8.2 C4.1,8.2 4.2,8.1 4.2,8 L4.5,6.8 L4.5,6.5 L3.8,5 C3.7,4.8 3.8,4.7 3.9,4.5 L4.5,3.9 C4.6,3.8 4.7,3.8 4.8,3.8 L4.9,3.8 L6.6,4.5 L6.7,4.5 L6.9,4.5 L8.3,3.9 C8.4,3.9 8.5,3.8 8.5,3.7 L9.2,2 C9.3,1.8 9.4,1.7 9.6,1.7 L10.4,1.7 C10.6,1.7 10.7,1.8 10.8,1.9 L11.5,3.6 C11.5,3.7 11.6,3.8 11.7,3.8 L12.8,4.4 L13,4.4 L13.1,4.4 L15.1,3.6 L15.2,3.6 C15.3,3.6 15.4,3.6 15.5,3.7 L16.1,4.3 C16.2,4.4 16.2,4.6 16.2,4.7 L15.5,7 L15.5,7.3 L16.1,8.4 C16.1,8.5 16.2,8.5 16.3,8.6 L18,9.3 C18.2,9.4 18.3,9.5 18.3,9.7 L18.3,10.4 L18.2,10.4 Z" id="Shape"></path>
                <path d="M10,5.9 C7.7,5.9 5.9,7.7 5.9,10 C5.9,12.3 7.7,14.1 10,14.1 C12.3,14.1 14.1,12.3 14.1,10 C14.1,7.7 12.3,5.9 10,5.9 Z M10,12.4 C8.7,12.4 7.6,11.3 7.6,10 C7.6,8.7 8.7,7.6 10,7.6 C11.3,7.6 12.4,8.7 12.4,10 C12.4,11.3 11.3,12.4 10,12.4 Z" id="Shape"></path>
            </g>
        </g>
    </g>
</svg>