<svg id="Layer_1" data-name="Layer 1" xmlns="http://www.w3.org/2000/svg" width="127.79999" height="158.08191" viewBox="0 0 127.79999 158.08191">
  <defs>
    <style>
      .cls-1 {
        fill: #fff;
      }
    </style>
  </defs>
  <title>SLlogo-white</title>
  <g>
    <path class="cls-1" d="M120.8,185.5c-17.9,4.4-35.6-.7-47.9-13.1l-24-24a15.93387,15.93387,0,0,1,0-22.5l6.9-6.9a2.41667,2.41667,0,0,1,3.5,0l7.3,7.3a2.41666,2.41666,0,0,1,0,3.5l-5.3,5.3a3.0846,3.0846,0,0,0,0,4.2l22.4,22.4a34.85231,34.85231,0,0,0,34.3,8.8,32.238,32.238,0,0,0,6.1-2.4,34.69985,34.69985,0,0,0,8.6-55.3L110.3,90.4a3.0846,3.0846,0,0,0-4.2,0l-5.3,5.3a2.41667,2.41667,0,0,1-3.5,0L90,88.4a2.41667,2.41667,0,0,1,0-3.5L96.9,78a15.93388,15.93388,0,0,1,22.5,0l24,24c22.7,22.7,18.9,61.9-11.2,79.1A48.99966,48.99966,0,0,1,120.8,185.5Z" transform="translate(-44.25 -28.97499)"/>
    <path class="cls-1" d="M108.1,141.9a18.41687,18.41687,0,0,1-12.9-5.3L72.8,114.2a49.92174,49.92174,0,0,1,70.6-70.6l24,24a15.93388,15.93388,0,0,1,0,22.5L160.5,97a2.41667,2.41667,0,0,1-3.5,0l-7.3-7.3a2.41667,2.41667,0,0,1,0-3.5l5.3-5.3a3.08459,3.08459,0,0,0,0-4.2L132.6,54.3a34.64823,34.64823,0,0,0-49,49l24,24a0.66805,0.66805,0,0,0,1,0l6.9-6.9a2.41667,2.41667,0,0,1,3.5,0l7.3,7.3a2.41666,2.41666,0,0,1,0,3.5l-5.3,5.3A18.10043,18.10043,0,0,1,108.1,141.9Z" transform="translate(-44.25 -28.97499)"/>
  </g>
</svg>
